# xmcd
#
# Track frame offsets: 
#        150
#        22570
#        45245
#        74585
#        95177
#        111510
#        135960
#        157437
#        178705
#
# Disc length: 2704 seconds
#
# Revision: 0
# Processed by: cddbd v1.5.2PL0 Copyright (c) Steve Scherf et al.
# Submitted via: ExactAudioCopyFreeDBPlugin 1.0
#
DISCID=780a8e09
DTITLE=Mamadou Diabate - Tunga
DYEAR=2000
DGENRE=Folk
TTITLE0=Dagna
TTITLE1=Dounuya
TTITLE2=Tunga
TTITLE3=Larsidan
TTITLE4=Soutoukou
TTITLE5=Mamadou Diawara
TTITLE6=Djanjo
TTITLE7=Djelimory
TTITLE8=Mande
EXTD=
EXTT0=
EXTT1=
EXTT2=
EXTT3=
EXTT4=
EXTT5=
EXTT6=
EXTT7=
EXTT8=
PLAYORDER=
